REM GENRE Classical
REM DATE 2007
REM DISCID 7B0B7B08
REM COMMENT "ExactAudioCopy v0.95b3"
PERFORMER "The String Quartet"
TITLE "String Quartet Tribute to Dream Theater"
FILE "01 - The String Quartet - Overture 1928.wav" WAVE
  TRACK 01 AUDIO
    TITLE "Overture 1928"
    PERFORMER "The String Quartet"
    INDEX 01 00:00:00
FILE "02 - The String Quartet - Pull Me Under.wav" WAVE
  TRACK 02 AUDIO
    TITLE "Pull Me Under"
    PERFORMER "The String Quartet"
    INDEX 01 00:00:00
FILE "03 - The String Quartet - As I Am.wav" WAVE
  TRACK 03 AUDIO
    TITLE "As I Am"
    PERFORMER "The String Quartet"
    INDEX 01 00:00:00
FILE "04 - The String Quartet - Peruvian Skies.wav" WAVE
  TRACK 04 AUDIO
    TITLE "Peruvian Skies"
    PERFORMER "The String Quartet"
    INDEX 01 00:00:00
FILE "05 - The String Quartet - The Dance Of Eternity.wav" WAVE
  TRACK 05 AUDIO
    TITLE "The Dance Of Eternity"
    PERFORMER "The String Quartet"
    INDEX 01 00:00:00
FILE "06 - The String Quartet - Lifting Shadows Off A Dream.wav" WAVE
  TRACK 06 AUDIO
    TITLE "Lifting Shadows Off A Dream"
    PERFORMER "The String Quartet"
    INDEX 01 00:00:00
FILE "07 - The String Quartet - Ytse Jam.wav" WAVE
  TRACK 07 AUDIO
    TITLE "Ytse Jam"
    PERFORMER "The String Quartet"
    INDEX 01 00:00:00
FILE "08 - The String Quartet - Hell's Kitchen.wav" WAVE
  TRACK 08 AUDIO
    TITLE "Hell's Kitchen"
    PERFORMER "The String Quartet"
    INDEX 01 00:00:00
